<svg width="512" height="512" viewBox="0 0 512 512" fill="none" xmlns="http://www.w3.org/2000/svg" role="img" aria-labelledby="title desc">
  <title id="title">Agent Operator Skills mark</title>
  <desc id="desc">A Z-shaped workflow mark with connected nodes and verification checks.</desc>
  <defs>
    <linearGradient id="bg" x1="64" y1="48" x2="448" y2="464" gradientUnits="userSpaceOnUse">
      <stop stop-color="#0B1020"/>
      <stop offset="0.58" stop-color="#101827"/>
      <stop offset="1" stop-color="#07130F"/>
    </linearGradient>
    <linearGradient id="blueGreen" x1="108" y1="116" x2="404" y2="396" gradientUnits="userSpaceOnUse">
      <stop stop-color="#38BDF8"/>
      <stop offset="0.52" stop-color="#2F7DF6"/>
      <stop offset="1" stop-color="#63E26E"/>
    </linearGradient>
    <filter id="glow" x="-30%" y="-30%" width="160%" height="160%" color-interpolation-filters="sRGB">
      <feGaussianBlur stdDeviation="6" result="blur"/>
      <feColorMatrix in="blur" type="matrix" values="0 0 0 0 0.12 0 0 0 0 0.63 0 0 0 0 1 0 0 0 0.55 0"/>
      <feBlend in2="SourceGraphic" mode="screen"/>
    </filter>
  </defs>

  <rect x="24" y="24" width="464" height="464" rx="104" fill="url(#bg)"/>
  <path d="M146 146H366L146 366H366" stroke="url(#blueGreen)" stroke-width="36" stroke-linecap="round" stroke-linejoin="round" filter="url(#glow)"/>
  <path d="M146 146H366L146 366H366" stroke="#EAF6FF" stroke-opacity="0.16" stroke-width="12" stroke-linecap="round" stroke-linejoin="round"/>

  <circle cx="146" cy="146" r="42" fill="#0E1B2D" stroke="#38BDF8" stroke-width="14"/>
  <circle cx="366" cy="146" r="42" fill="#0E1B2D" stroke="#38BDF8" stroke-width="14"/>
  <circle cx="146" cy="366" r="42" fill="#0D2117" stroke="#63E26E" stroke-width="14"/>
  <circle cx="366" cy="366" r="42" fill="#0D2117" stroke="#63E26E" stroke-width="14"/>
  <circle cx="256" cy="256" r="36" fill="#111827" stroke="#8EE7FF" stroke-width="10"/>

  <path d="M128 145.5L140.5 158L165 131" stroke="#EAF6FF" stroke-width="12" stroke-linecap="round" stroke-linejoin="round"/>
  <path d="M348 145.5L360.5 158L385 131" stroke="#EAF6FF" stroke-width="12" stroke-linecap="round" stroke-linejoin="round"/>
  <path d="M128 365.5L140.5 378L165 351" stroke="#EAF6FF" stroke-width="12" stroke-linecap="round" stroke-linejoin="round"/>
  <path d="M348 365.5L360.5 378L385 351" stroke="#EAF6FF" stroke-width="12" stroke-linecap="round" stroke-linejoin="round"/>

  <path d="M243 256H269M256 243V269" stroke="#8EE7FF" stroke-width="10" stroke-linecap="round"/>
</svg>
